<mxfile host="65bd71144e">
    <diagram id="rwZVFnb9-4XuviEcM_qo" name="페이지-1">
        <mxGraphModel dx="1140" dy="521" grid="1" gridSize="10" guides="1" tooltips="1" connect="1" arrows="1" fold="1" page="1" pageScale="1" pageWidth="827" pageHeight="1169" background="#ffffff" math="0" shadow="0">
            <root>
                <mxCell id="0"/>
                <mxCell id="1" parent="0"/>
                <mxCell id="2" value="Button" style="whiteSpace=wrap;html=1;fontSize=18;strokeColor=#666666;fontColor=#333333;fillColor=#f5f5f5;" parent="1" vertex="1">
                    <mxGeometry x="110" y="360" width="120" height="60" as="geometry"/>
                </mxCell>
                <mxCell id="6" value="" style="edgeStyle=none;html=1;fontSize=18;strokeColor=#666666;fontColor=#000000;fillColor=#f5f5f5;" parent="1" source="4" target="2" edge="1">
                    <mxGeometry relative="1" as="geometry"/>
                </mxCell>
                <mxCell id="8" value="" style="edgeStyle=none;html=1;fontSize=18;strokeColor=#666666;fontColor=#000000;fillColor=#f5f5f5;" parent="1" source="4" target="7" edge="1">
                    <mxGeometry relative="1" as="geometry"/>
                </mxCell>
                <mxCell id="4" value="Listener" style="whiteSpace=wrap;html=1;fontSize=18;strokeColor=#666666;fontColor=#333333;fillColor=#f5f5f5;" parent="1" vertex="1">
                    <mxGeometry x="110" y="220" width="120" height="60" as="geometry"/>
                </mxCell>
                <mxCell id="14" value="" style="edgeStyle=none;html=1;fontSize=18;strokeColor=#666666;fontColor=#000000;fillColor=#f5f5f5;" parent="1" source="7" target="13" edge="1">
                    <mxGeometry relative="1" as="geometry"/>
                </mxCell>
                <mxCell id="7" value="Controller" style="whiteSpace=wrap;html=1;fontSize=18;strokeColor=#666666;fontColor=#333333;fillColor=#f5f5f5;" parent="1" vertex="1">
                    <mxGeometry x="310" y="220" width="120" height="60" as="geometry"/>
                </mxCell>
                <mxCell id="12" value="" style="edgeStyle=none;html=1;fontSize=18;strokeColor=#666666;fontColor=#000000;fillColor=#f5f5f5;" parent="1" source="9" target="11" edge="1">
                    <mxGeometry relative="1" as="geometry"/>
                </mxCell>
                <mxCell id="9" value="View" style="whiteSpace=wrap;html=1;fontSize=18;strokeColor=#666666;fontColor=#333333;fillColor=#f5f5f5;" parent="1" vertex="1">
                    <mxGeometry x="510" y="220" width="120" height="60" as="geometry"/>
                </mxCell>
                <mxCell id="11" value="Led" style="whiteSpace=wrap;html=1;fontSize=18;strokeColor=#666666;fontColor=#333333;fillColor=#f5f5f5;" parent="1" vertex="1">
                    <mxGeometry x="510" y="360" width="120" height="60" as="geometry"/>
                </mxCell>
                <mxCell id="15" style="edgeStyle=orthogonalEdgeStyle;html=1;exitX=1;exitY=0.5;exitDx=0;exitDy=0;entryX=0.5;entryY=0;entryDx=0;entryDy=0;fontSize=18;rounded=0;strokeColor=#666666;fontColor=#000000;fillColor=#f5f5f5;" parent="1" source="13" target="9" edge="1">
                    <mxGeometry relative="1" as="geometry"/>
                </mxCell>
                <mxCell id="13" value="Service" style="whiteSpace=wrap;html=1;fontSize=18;strokeColor=#666666;fontColor=#333333;fillColor=#f5f5f5;" parent="1" vertex="1">
                    <mxGeometry x="310" y="80" width="120" height="60" as="geometry"/>
                </mxCell>
                <mxCell id="16" value="Button" style="whiteSpace=wrap;html=1;fontSize=18;fillColor=#ffff88;strokeColor=#000000;fontColor=#000000;" parent="1" vertex="1">
                    <mxGeometry x="60" y="835" width="120" height="60" as="geometry"/>
                </mxCell>
                <mxCell id="17" value="" style="edgeStyle=none;html=1;fontSize=18;entryX=0.5;entryY=0;entryDx=0;entryDy=0;rounded=0;fontColor=#000000;strokeColor=#000000;" parent="1" source="19" edge="1">
                    <mxGeometry relative="1" as="geometry">
                        <Array as="points">
                            <mxPoint x="199" y="765"/>
                            <mxPoint x="120" y="765"/>
                        </Array>
                        <mxPoint x="120" y="835" as="targetPoint"/>
                    </mxGeometry>
                </mxCell>
                <mxCell id="18" value="" style="edgeStyle=none;html=1;fontSize=18;strokeColor=#000000;" parent="1" source="19" target="21" edge="1">
                    <mxGeometry relative="1" as="geometry"/>
                </mxCell>
                <mxCell id="38" style="edgeStyle=none;rounded=0;html=1;entryX=0.5;entryY=0;entryDx=0;entryDy=0;exitX=0.5;exitY=1;exitDx=0;exitDy=0;fontColor=#000000;strokeColor=#000000;" parent="1" source="19" target="37" edge="1">
                    <mxGeometry relative="1" as="geometry">
                        <Array as="points">
                            <mxPoint x="199" y="765"/>
                            <mxPoint x="269" y="765"/>
                        </Array>
                    </mxGeometry>
                </mxCell>
                <mxCell id="19" value="Listener" style="whiteSpace=wrap;html=1;fontSize=18;strokeColor=#36393d;fillColor=#f9f7ed;fontColor=#000000;" parent="1" vertex="1">
                    <mxGeometry x="139" y="585" width="120" height="60" as="geometry"/>
                </mxCell>
                <mxCell id="33" style="edgeStyle=none;html=1;entryX=0.5;entryY=0;entryDx=0;entryDy=0;rounded=0;strokeColor=#000000;" parent="1" source="21" target="26" edge="1">
                    <mxGeometry relative="1" as="geometry">
                        <Array as="points">
                            <mxPoint x="609" y="675"/>
                            <mxPoint x="539" y="675"/>
                        </Array>
                    </mxGeometry>
                </mxCell>
                <mxCell id="34" style="edgeStyle=none;rounded=0;html=1;entryX=0.5;entryY=0;entryDx=0;entryDy=0;strokeColor=#000000;" parent="1" source="21" target="27" edge="1">
                    <mxGeometry relative="1" as="geometry">
                        <Array as="points">
                            <mxPoint x="609" y="675"/>
                            <mxPoint x="679" y="675"/>
                        </Array>
                    </mxGeometry>
                </mxCell>
                <mxCell id="21" value="Controller" style="whiteSpace=wrap;html=1;fontSize=18;strokeColor=#36393d;fillColor=#f9f7ed;fontColor=#000000;" parent="1" vertex="1">
                    <mxGeometry x="549" y="585" width="120" height="60" as="geometry"/>
                </mxCell>
                <mxCell id="22" value="" style="edgeStyle=none;html=1;fontSize=18;strokeColor=#000000;" parent="1" source="23" target="24" edge="1">
                    <mxGeometry relative="1" as="geometry"/>
                </mxCell>
                <mxCell id="23" value="LightView" style="whiteSpace=wrap;html=1;fontSize=18;strokeColor=#36393d;fillColor=#f9f7ed;fontColor=#000000;" parent="1" vertex="1">
                    <mxGeometry x="479" y="835" width="120" height="60" as="geometry"/>
                </mxCell>
                <mxCell id="24" value="Led" style="whiteSpace=wrap;html=1;fontSize=18;strokeColor=#36393d;fillColor=#f9f7ed;fontColor=#000000;" parent="1" vertex="1">
                    <mxGeometry x="479" y="945" width="120" height="60" as="geometry"/>
                </mxCell>
                <mxCell id="31" value="" style="edgeStyle=none;html=1;strokeColor=#000000;" parent="1" source="26" target="23" edge="1">
                    <mxGeometry relative="1" as="geometry"/>
                </mxCell>
                <mxCell id="26" value="StandLight&lt;br&gt;Service" style="whiteSpace=wrap;html=1;fontSize=18;strokeColor=#36393d;fillColor=#f9f7ed;fontColor=#000000;" parent="1" vertex="1">
                    <mxGeometry x="479" y="715" width="120" height="60" as="geometry"/>
                </mxCell>
                <mxCell id="32" value="" style="edgeStyle=none;html=1;strokeColor=#000000;" parent="1" source="27" target="28" edge="1">
                    <mxGeometry relative="1" as="geometry"/>
                </mxCell>
                <mxCell id="27" value="Clock&lt;br&gt;Service" style="whiteSpace=wrap;html=1;fontSize=18;fillColor=#ffff88;strokeColor=#000000;fontColor=#000000;" parent="1" vertex="1">
                    <mxGeometry x="619" y="715" width="120" height="60" as="geometry"/>
                </mxCell>
                <mxCell id="30" value="" style="edgeStyle=none;html=1;strokeColor=#000000;" parent="1" source="28" target="29" edge="1">
                    <mxGeometry relative="1" as="geometry"/>
                </mxCell>
                <mxCell id="28" value="ClockView" style="whiteSpace=wrap;html=1;fontSize=18;fillColor=#ffff88;strokeColor=#000000;fontColor=#000000;" parent="1" vertex="1">
                    <mxGeometry x="619" y="835" width="120" height="60" as="geometry"/>
                </mxCell>
                <mxCell id="29" value="LCD" style="whiteSpace=wrap;html=1;fontSize=18;fillColor=#ffff88;strokeColor=#000000;fontColor=#000000;" parent="1" vertex="1">
                    <mxGeometry x="619" y="945" width="120" height="60" as="geometry"/>
                </mxCell>
                <mxCell id="35" value="5" style="text;html=1;resizable=0;autosize=1;align=center;verticalAlign=middle;points=[];fillColor=none;rounded=0;fontColor=#000000;" parent="1" vertex="1">
                    <mxGeometry x="549" y="915" width="20" height="20" as="geometry"/>
                </mxCell>
                <mxCell id="36" value="2" style="text;html=1;resizable=0;autosize=1;align=center;verticalAlign=middle;points=[];fillColor=none;rounded=0;fontColor=#000000;" parent="1" vertex="1">
                    <mxGeometry x="139" y="805" width="20" height="20" as="geometry"/>
                </mxCell>
                <mxCell id="37" value="ClockCheck" style="whiteSpace=wrap;html=1;fontSize=18;fillColor=#ffff88;strokeColor=#000000;fontColor=#000000;" parent="1" vertex="1">
                    <mxGeometry x="209" y="835" width="120" height="60" as="geometry"/>
                </mxCell>
                <mxCell id="39" value="&lt;font style=&quot;font-size: 14px&quot;&gt;스탠드 #2&lt;br&gt;1. 버튼1 : LED 밝기 조절&lt;br&gt;&lt;b&gt;2. 버튼2 : LCD(시계) back light ON/OFF&lt;/b&gt;&lt;/font&gt;" style="text;html=1;resizable=0;autosize=1;align=left;verticalAlign=middle;points=[];fillColor=none;strokeColor=none;rounded=0;fontColor=#000000;" parent="1" vertex="1">
                    <mxGeometry x="20" y="490" width="270" height="50" as="geometry"/>
                </mxCell>
                <mxCell id="40" value="&lt;font style=&quot;font-size: 14px&quot;&gt;스탠드#1&lt;br&gt;&lt;b&gt;1. 버튼1 : LED ON/OFF&lt;/b&gt;&lt;/font&gt;" style="text;html=1;resizable=0;autosize=1;align=left;verticalAlign=middle;points=[];fillColor=none;rounded=0;fontColor=#000000;" parent="1" vertex="1">
                    <mxGeometry x="20" y="30" width="160" height="40" as="geometry"/>
                </mxCell>
                <mxCell id="41" value="Button" style="whiteSpace=wrap;html=1;fontSize=18;fillColor=#f9f7ed;strokeColor=#36393d;fontColor=#000000;" parent="1" vertex="1">
                    <mxGeometry x="50" y="1550" width="120" height="60" as="geometry"/>
                </mxCell>
                <mxCell id="42" value="" style="edgeStyle=none;html=1;fontSize=18;entryX=0.5;entryY=0;entryDx=0;entryDy=0;rounded=0;fontColor=#000000;strokeColor=#000000;" parent="1" source="45" target="41" edge="1">
                    <mxGeometry relative="1" as="geometry">
                        <Array as="points">
                            <mxPoint x="189" y="1480"/>
                            <mxPoint x="110" y="1480"/>
                        </Array>
                    </mxGeometry>
                </mxCell>
                <mxCell id="43" value="" style="edgeStyle=none;html=1;fontSize=18;strokeColor=#000000;" parent="1" source="45" target="48" edge="1">
                    <mxGeometry relative="1" as="geometry"/>
                </mxCell>
                <mxCell id="44" style="edgeStyle=none;rounded=0;html=1;entryX=0.5;entryY=0;entryDx=0;entryDy=0;exitX=0.5;exitY=1;exitDx=0;exitDy=0;fontColor=#000000;strokeColor=#000000;" parent="1" source="45" target="61" edge="1">
                    <mxGeometry relative="1" as="geometry">
                        <Array as="points">
                            <mxPoint x="189" y="1480"/>
                            <mxPoint x="259" y="1480"/>
                        </Array>
                    </mxGeometry>
                </mxCell>
                <mxCell id="45" value="Listener" style="whiteSpace=wrap;html=1;fontSize=18;strokeColor=#36393d;fillColor=#f9f7ed;fontColor=#000000;" parent="1" vertex="1">
                    <mxGeometry x="129" y="1300" width="120" height="60" as="geometry"/>
                </mxCell>
                <mxCell id="46" style="edgeStyle=none;html=1;entryX=0.5;entryY=0;entryDx=0;entryDy=0;rounded=0;strokeColor=#000000;" parent="1" source="48" target="53" edge="1">
                    <mxGeometry relative="1" as="geometry">
                        <Array as="points">
                            <mxPoint x="599" y="1390"/>
                            <mxPoint x="529" y="1390"/>
                        </Array>
                    </mxGeometry>
                </mxCell>
                <mxCell id="47" style="edgeStyle=none;rounded=0;html=1;entryX=0.5;entryY=0;entryDx=0;entryDy=0;strokeColor=#000000;" parent="1" source="48" target="55" edge="1">
                    <mxGeometry relative="1" as="geometry">
                        <Array as="points">
                            <mxPoint x="599" y="1390"/>
                            <mxPoint x="669" y="1390"/>
                        </Array>
                    </mxGeometry>
                </mxCell>
                <mxCell id="48" value="Controller" style="whiteSpace=wrap;html=1;fontSize=18;strokeColor=#36393d;fillColor=#f9f7ed;fontColor=#000000;" parent="1" vertex="1">
                    <mxGeometry x="539" y="1300" width="120" height="60" as="geometry"/>
                </mxCell>
                <mxCell id="49" value="" style="edgeStyle=none;html=1;fontSize=18;strokeColor=#000000;" parent="1" source="50" target="51" edge="1">
                    <mxGeometry relative="1" as="geometry"/>
                </mxCell>
                <mxCell id="62" style="edgeStyle=none;html=1;exitX=0.5;exitY=1;exitDx=0;exitDy=0;strokeColor=#000000;entryX=0.35;entryY=0.033;entryDx=0;entryDy=0;entryPerimeter=0;rounded=0;" parent="1" source="50" target="58" edge="1">
                    <mxGeometry relative="1" as="geometry">
                        <mxPoint x="650" y="1710" as="targetPoint"/>
                        <Array as="points">
                            <mxPoint x="529" y="1610"/>
                            <mxPoint x="651" y="1610"/>
                        </Array>
                    </mxGeometry>
                </mxCell>
                <mxCell id="50" value="LightView" style="whiteSpace=wrap;html=1;fontSize=18;strokeColor=#36393d;fillColor=#ffff88;fontColor=#000000;" parent="1" vertex="1">
                    <mxGeometry x="469" y="1520" width="120" height="60" as="geometry"/>
                </mxCell>
                <mxCell id="51" value="Led" style="whiteSpace=wrap;html=1;fontSize=18;strokeColor=#36393d;fillColor=#f9f7ed;fontColor=#000000;" parent="1" vertex="1">
                    <mxGeometry x="469" y="1650" width="120" height="60" as="geometry"/>
                </mxCell>
                <mxCell id="52" value="" style="edgeStyle=none;html=1;strokeColor=#000000;" parent="1" source="53" target="50" edge="1">
                    <mxGeometry relative="1" as="geometry"/>
                </mxCell>
                <mxCell id="53" value="StandLight&lt;br&gt;Service" style="whiteSpace=wrap;html=1;fontSize=18;strokeColor=#36393d;fillColor=#f9f7ed;fontColor=#000000;" parent="1" vertex="1">
                    <mxGeometry x="469" y="1420" width="120" height="60" as="geometry"/>
                </mxCell>
                <mxCell id="54" value="" style="edgeStyle=none;html=1;strokeColor=#000000;" parent="1" source="55" target="57" edge="1">
                    <mxGeometry relative="1" as="geometry"/>
                </mxCell>
                <mxCell id="55" value="Clock&lt;br&gt;Service" style="whiteSpace=wrap;html=1;fontSize=18;fillColor=#f9f7ed;strokeColor=#36393d;fontColor=#000000;" parent="1" vertex="1">
                    <mxGeometry x="609" y="1420" width="120" height="60" as="geometry"/>
                </mxCell>
                <mxCell id="56" value="" style="edgeStyle=none;html=1;strokeColor=#000000;" parent="1" source="57" target="58" edge="1">
                    <mxGeometry relative="1" as="geometry"/>
                </mxCell>
                <mxCell id="57" value="ClockView" style="whiteSpace=wrap;html=1;fontSize=18;fillColor=#f9f7ed;strokeColor=#36393d;fontColor=#000000;" parent="1" vertex="1">
                    <mxGeometry x="609" y="1520" width="120" height="60" as="geometry"/>
                </mxCell>
                <mxCell id="58" value="LCD" style="whiteSpace=wrap;html=1;fontSize=18;fillColor=#f9f7ed;strokeColor=#36393d;fontColor=#000000;" parent="1" vertex="1">
                    <mxGeometry x="609" y="1650" width="120" height="60" as="geometry"/>
                </mxCell>
                <mxCell id="59" value="5" style="text;html=1;resizable=0;autosize=1;align=center;verticalAlign=middle;points=[];fillColor=none;rounded=0;fontColor=#000000;" parent="1" vertex="1">
                    <mxGeometry x="539" y="1630" width="20" height="20" as="geometry"/>
                </mxCell>
                <mxCell id="60" value="2" style="text;html=1;resizable=0;autosize=1;align=center;verticalAlign=middle;points=[];fillColor=none;rounded=0;fontColor=#000000;" parent="1" vertex="1">
                    <mxGeometry x="119" y="1530" width="20" height="20" as="geometry"/>
                </mxCell>
                <mxCell id="61" value="ClockCheck" style="whiteSpace=wrap;html=1;fontSize=18;fillColor=#f9f7ed;strokeColor=#36393d;fontColor=#000000;" parent="1" vertex="1">
                    <mxGeometry x="199" y="1550" width="120" height="60" as="geometry"/>
                </mxCell>
                <mxCell id="63" value="&lt;font&gt;&lt;font style=&quot;font-size: 14px&quot;&gt;스탠드 #3&lt;br&gt;1. 버튼1 : LED 밝기 조절&lt;br&gt;2. 버튼2 : LCD(시계) back light ON/OFF&lt;br&gt;&lt;b&gt;3. LCD 0 : LED 모드 상태 표시 (off,1,2,3,4,5)&lt;/b&gt;&lt;br&gt;&amp;nbsp; &amp;nbsp; LCD 1: 시계 (hh:mm:ss)&lt;/font&gt;&lt;br&gt;&lt;/font&gt;" style="text;html=1;resizable=0;autosize=1;align=left;verticalAlign=middle;points=[];fillColor=none;strokeColor=none;rounded=0;fontColor=#000000;" parent="1" vertex="1">
                    <mxGeometry x="10" y="1190" width="300" height="80" as="geometry"/>
                </mxCell>
                <mxCell id="86" value="Button" style="whiteSpace=wrap;html=1;fontSize=18;fillColor=#ffff88;strokeColor=#36393d;fontColor=#000000;" parent="1" vertex="1">
                    <mxGeometry x="139" y="2100" width="120" height="60" as="geometry"/>
                </mxCell>
                <mxCell id="87" value="" style="edgeStyle=none;html=1;fontSize=18;entryX=0.5;entryY=0;entryDx=0;entryDy=0;rounded=0;fontColor=#000000;strokeColor=#000000;" parent="1" source="90" target="86" edge="1">
                    <mxGeometry relative="1" as="geometry">
                        <Array as="points">
                            <mxPoint x="199" y="2030"/>
                        </Array>
                    </mxGeometry>
                </mxCell>
                <mxCell id="88" value="" style="edgeStyle=none;html=1;fontSize=18;strokeColor=#000000;" parent="1" source="90" target="93" edge="1">
                    <mxGeometry relative="1" as="geometry"/>
                </mxCell>
                <mxCell id="89" style="edgeStyle=none;rounded=0;html=1;entryX=0.5;entryY=0;entryDx=0;entryDy=0;exitX=0.5;exitY=1;exitDx=0;exitDy=0;fontColor=#000000;strokeColor=#000000;" parent="1" source="90" target="107" edge="1">
                    <mxGeometry relative="1" as="geometry">
                        <Array as="points">
                            <mxPoint x="199" y="2000"/>
                            <mxPoint x="269" y="2000"/>
                            <mxPoint x="330" y="2000"/>
                        </Array>
                    </mxGeometry>
                </mxCell>
                <mxCell id="90" value="Listener" style="whiteSpace=wrap;html=1;fontSize=18;strokeColor=#36393d;fillColor=#f9f7ed;fontColor=#000000;" parent="1" vertex="1">
                    <mxGeometry x="139" y="1850" width="120" height="60" as="geometry"/>
                </mxCell>
                <mxCell id="91" style="edgeStyle=none;html=1;entryX=0.5;entryY=0;entryDx=0;entryDy=0;rounded=0;strokeColor=#000000;" parent="1" source="93" target="99" edge="1">
                    <mxGeometry relative="1" as="geometry">
                        <Array as="points">
                            <mxPoint x="609" y="1940"/>
                            <mxPoint x="539" y="1940"/>
                        </Array>
                    </mxGeometry>
                </mxCell>
                <mxCell id="92" style="edgeStyle=none;rounded=0;html=1;entryX=0.5;entryY=0;entryDx=0;entryDy=0;strokeColor=#000000;" parent="1" source="93" target="101" edge="1">
                    <mxGeometry relative="1" as="geometry">
                        <Array as="points">
                            <mxPoint x="609" y="1940"/>
                            <mxPoint x="679" y="1940"/>
                        </Array>
                    </mxGeometry>
                </mxCell>
                <mxCell id="93" value="Controller" style="whiteSpace=wrap;html=1;fontSize=18;strokeColor=#36393d;fillColor=#f9f7ed;fontColor=#000000;" parent="1" vertex="1">
                    <mxGeometry x="549" y="1850" width="120" height="60" as="geometry"/>
                </mxCell>
                <mxCell id="94" value="" style="edgeStyle=none;html=1;fontSize=18;strokeColor=#000000;" parent="1" source="96" target="97" edge="1">
                    <mxGeometry relative="1" as="geometry"/>
                </mxCell>
                <mxCell id="95" style="edgeStyle=none;html=1;exitX=0.5;exitY=1;exitDx=0;exitDy=0;strokeColor=#000000;entryX=0.35;entryY=0.033;entryDx=0;entryDy=0;entryPerimeter=0;rounded=0;" parent="1" source="96" target="104" edge="1">
                    <mxGeometry relative="1" as="geometry">
                        <mxPoint x="660" y="2260" as="targetPoint"/>
                        <Array as="points">
                            <mxPoint x="539" y="2160"/>
                            <mxPoint x="661" y="2160"/>
                        </Array>
                    </mxGeometry>
                </mxCell>
                <mxCell id="96" value="LightView" style="whiteSpace=wrap;html=1;fontSize=18;strokeColor=#36393d;fillColor=#f9f7ed;fontColor=#000000;" parent="1" vertex="1">
                    <mxGeometry x="479" y="2070" width="120" height="60" as="geometry"/>
                </mxCell>
                <mxCell id="97" value="Led" style="whiteSpace=wrap;html=1;fontSize=18;strokeColor=#36393d;fillColor=#f9f7ed;fontColor=#000000;" parent="1" vertex="1">
                    <mxGeometry x="479" y="2200" width="120" height="60" as="geometry"/>
                </mxCell>
                <mxCell id="98" value="" style="edgeStyle=none;html=1;strokeColor=#000000;" parent="1" source="99" target="96" edge="1">
                    <mxGeometry relative="1" as="geometry"/>
                </mxCell>
                <mxCell id="99" value="StandLight&lt;br&gt;Service" style="whiteSpace=wrap;html=1;fontSize=18;strokeColor=#36393d;fillColor=#f9f7ed;fontColor=#000000;" parent="1" vertex="1">
                    <mxGeometry x="479" y="1970" width="120" height="60" as="geometry"/>
                </mxCell>
                <mxCell id="100" value="" style="edgeStyle=none;html=1;strokeColor=#000000;" parent="1" source="101" target="103" edge="1">
                    <mxGeometry relative="1" as="geometry"/>
                </mxCell>
                <mxCell id="101" value="Clock&lt;br&gt;Service" style="whiteSpace=wrap;html=1;fontSize=18;fillColor=#f9f7ed;strokeColor=#36393d;fontColor=#000000;" parent="1" vertex="1">
                    <mxGeometry x="619" y="1970" width="120" height="60" as="geometry"/>
                </mxCell>
                <mxCell id="102" value="" style="edgeStyle=none;html=1;strokeColor=#000000;" parent="1" source="103" target="104" edge="1">
                    <mxGeometry relative="1" as="geometry"/>
                </mxCell>
                <mxCell id="103" value="ClockView" style="whiteSpace=wrap;html=1;fontSize=18;fillColor=#f9f7ed;strokeColor=#36393d;fontColor=#000000;" parent="1" vertex="1">
                    <mxGeometry x="619" y="2070" width="120" height="60" as="geometry"/>
                </mxCell>
                <mxCell id="104" value="LCD" style="whiteSpace=wrap;html=1;fontSize=18;fillColor=#f9f7ed;strokeColor=#36393d;fontColor=#000000;" parent="1" vertex="1">
                    <mxGeometry x="619" y="2200" width="120" height="60" as="geometry"/>
                </mxCell>
                <mxCell id="105" value="5" style="text;html=1;resizable=0;autosize=1;align=center;verticalAlign=middle;points=[];fillColor=none;rounded=0;fontColor=#000000;" parent="1" vertex="1">
                    <mxGeometry x="549" y="2180" width="20" height="20" as="geometry"/>
                </mxCell>
                <mxCell id="106" value="2" style="text;html=1;resizable=0;autosize=1;align=center;verticalAlign=middle;points=[];fillColor=none;rounded=0;fontColor=#000000;" parent="1" vertex="1">
                    <mxGeometry x="210" y="2080" width="20" height="20" as="geometry"/>
                </mxCell>
                <mxCell id="107" value="ClockCheck" style="whiteSpace=wrap;html=1;fontSize=18;fillColor=#f9f7ed;strokeColor=#36393d;fontColor=#000000;" parent="1" vertex="1">
                    <mxGeometry x="270" y="2100" width="120" height="60" as="geometry"/>
                </mxCell>
                <mxCell id="108" value="&lt;font&gt;&lt;font style=&quot;font-size: 14px&quot;&gt;스탠드 #4&lt;br&gt;1. 버튼1 : LED 밝기 조절&lt;br&gt;&lt;b&gt;2. 버튼2 :&lt;/b&gt; &lt;b&gt;LCD(시계) back light ON/OFF&lt;/b&gt;&lt;br&gt;3. LCD 0 : LED 모드 상태 표시 (off,1,2,3,4,5)&lt;br&gt;&amp;nbsp; &amp;nbsp; LCD 1: 시계 (hh:mm:ss)&lt;/font&gt;&lt;br&gt;&lt;/font&gt;" style="text;html=1;resizable=0;autosize=1;align=left;verticalAlign=middle;points=[];fillColor=none;strokeColor=none;rounded=0;fontColor=#000000;" parent="1" vertex="1">
                    <mxGeometry x="29" y="1735" width="290" height="80" as="geometry"/>
                </mxCell>
                <mxCell id="Rb2rSseCKVTXl8TNKAfo-113" value="Button" style="whiteSpace=wrap;html=1;fontSize=18;fillColor=#f9f7ed;strokeColor=#36393d;fontColor=#000000;" parent="1" vertex="1">
                    <mxGeometry x="25" y="2830" width="120" height="60" as="geometry"/>
                </mxCell>
                <mxCell id="Rb2rSseCKVTXl8TNKAfo-114" value="" style="edgeStyle=none;html=1;fontSize=18;entryX=0.5;entryY=0;entryDx=0;entryDy=0;rounded=0;fontColor=#000000;strokeColor=#000000;" parent="1" source="Rb2rSseCKVTXl8TNKAfo-118" target="Rb2rSseCKVTXl8TNKAfo-113" edge="1">
                    <mxGeometry relative="1" as="geometry">
                        <Array as="points">
                            <mxPoint x="215" y="2735"/>
                            <mxPoint x="85" y="2735"/>
                        </Array>
                    </mxGeometry>
                </mxCell>
                <mxCell id="Rb2rSseCKVTXl8TNKAfo-115" value="" style="edgeStyle=none;html=1;fontSize=18;strokeColor=#000000;" parent="1" source="Rb2rSseCKVTXl8TNKAfo-118" target="Rb2rSseCKVTXl8TNKAfo-121" edge="1">
                    <mxGeometry relative="1" as="geometry"/>
                </mxCell>
                <mxCell id="Rb2rSseCKVTXl8TNKAfo-116" style="edgeStyle=none;rounded=0;html=1;entryX=0.5;entryY=0;entryDx=0;entryDy=0;exitX=0.5;exitY=1;exitDx=0;exitDy=0;fontColor=#000000;strokeColor=#000000;" parent="1" source="Rb2rSseCKVTXl8TNKAfo-118" target="Rb2rSseCKVTXl8TNKAfo-135" edge="1">
                    <mxGeometry relative="1" as="geometry">
                        <Array as="points"/>
                    </mxGeometry>
                </mxCell>
                <mxCell id="Rb2rSseCKVTXl8TNKAfo-139" style="edgeStyle=orthogonalEdgeStyle;rounded=0;html=1;exitX=0.5;exitY=1;exitDx=0;exitDy=0;fontSize=14;fontColor=#000000;strokeColor=#000000;" parent="1" source="Rb2rSseCKVTXl8TNKAfo-118" target="Rb2rSseCKVTXl8TNKAfo-138" edge="1">
                    <mxGeometry relative="1" as="geometry"/>
                </mxCell>
                <mxCell id="124" style="edgeStyle=none;html=1;entryX=0;entryY=0.5;entryDx=0;entryDy=0;fontColor=#000000;strokeColor=#000000;exitX=0.5;exitY=0;exitDx=0;exitDy=0;rounded=0;" edge="1" parent="1" source="Rb2rSseCKVTXl8TNKAfo-118" target="123">
                    <mxGeometry relative="1" as="geometry">
                        <Array as="points">
                            <mxPoint x="215" y="2520"/>
                        </Array>
                    </mxGeometry>
                </mxCell>
                <mxCell id="Rb2rSseCKVTXl8TNKAfo-118" value="Listener" style="whiteSpace=wrap;html=1;fontSize=18;strokeColor=#36393d;fillColor=#f9f7ed;fontColor=#000000;" parent="1" vertex="1">
                    <mxGeometry x="155" y="2580" width="120" height="60" as="geometry"/>
                </mxCell>
                <mxCell id="Rb2rSseCKVTXl8TNKAfo-119" style="edgeStyle=none;html=1;entryX=0.5;entryY=0;entryDx=0;entryDy=0;rounded=0;strokeColor=#000000;" parent="1" source="Rb2rSseCKVTXl8TNKAfo-121" target="Rb2rSseCKVTXl8TNKAfo-127" edge="1">
                    <mxGeometry relative="1" as="geometry">
                        <Array as="points">
                            <mxPoint x="616" y="2670"/>
                            <mxPoint x="479" y="2670"/>
                        </Array>
                    </mxGeometry>
                </mxCell>
                <mxCell id="117" style="edgeStyle=orthogonalEdgeStyle;html=1;exitX=0.5;exitY=1;exitDx=0;exitDy=0;entryX=0.5;entryY=0;entryDx=0;entryDy=0;fontColor=#000000;rounded=0;strokeColor=#000000;" parent="1" source="Rb2rSseCKVTXl8TNKAfo-121" target="113" edge="1">
                    <mxGeometry relative="1" as="geometry">
                        <Array as="points">
                            <mxPoint x="616" y="2670"/>
                            <mxPoint x="746" y="2670"/>
                        </Array>
                    </mxGeometry>
                </mxCell>
                <mxCell id="125" style="edgeStyle=none;rounded=0;html=1;entryX=0.5;entryY=1;entryDx=0;entryDy=0;fontColor=#000000;strokeColor=#000000;exitX=0.5;exitY=0;exitDx=0;exitDy=0;" edge="1" parent="1" source="Rb2rSseCKVTXl8TNKAfo-121" target="123">
                    <mxGeometry relative="1" as="geometry">
                        <Array as="points"/>
                    </mxGeometry>
                </mxCell>
                <mxCell id="127" style="edgeStyle=none;rounded=0;html=1;entryX=0.5;entryY=0;entryDx=0;entryDy=0;fontColor=#000000;strokeColor=#000000;" edge="1" parent="1" source="Rb2rSseCKVTXl8TNKAfo-121" target="Rb2rSseCKVTXl8TNKAfo-129">
                    <mxGeometry relative="1" as="geometry"/>
                </mxCell>
                <mxCell id="Rb2rSseCKVTXl8TNKAfo-121" value="Controller" style="whiteSpace=wrap;html=1;fontSize=18;strokeColor=#36393d;fillColor=#f9f7ed;fontColor=#000000;" parent="1" vertex="1">
                    <mxGeometry x="556" y="2580" width="120" height="60" as="geometry"/>
                </mxCell>
                <mxCell id="Rb2rSseCKVTXl8TNKAfo-122" value="" style="edgeStyle=none;html=1;fontSize=18;strokeColor=#000000;" parent="1" source="Rb2rSseCKVTXl8TNKAfo-124" target="Rb2rSseCKVTXl8TNKAfo-125" edge="1">
                    <mxGeometry relative="1" as="geometry"/>
                </mxCell>
                <mxCell id="Rb2rSseCKVTXl8TNKAfo-123" style="edgeStyle=none;html=1;exitX=0.5;exitY=1;exitDx=0;exitDy=0;strokeColor=#000000;entryX=0.35;entryY=0.033;entryDx=0;entryDy=0;entryPerimeter=0;rounded=0;" parent="1" source="Rb2rSseCKVTXl8TNKAfo-124" target="Rb2rSseCKVTXl8TNKAfo-132" edge="1">
                    <mxGeometry relative="1" as="geometry">
                        <mxPoint x="596" y="2990" as="targetPoint"/>
                        <Array as="points">
                            <mxPoint x="479" y="2890"/>
                            <mxPoint x="597" y="2890"/>
                        </Array>
                    </mxGeometry>
                </mxCell>
                <mxCell id="Rb2rSseCKVTXl8TNKAfo-124" value="LightView" style="whiteSpace=wrap;html=1;fontSize=18;strokeColor=#36393d;fillColor=#f9f7ed;fontColor=#000000;" parent="1" vertex="1">
                    <mxGeometry x="419" y="2800" width="120" height="60" as="geometry"/>
                </mxCell>
                <mxCell id="Rb2rSseCKVTXl8TNKAfo-125" value="Led" style="whiteSpace=wrap;html=1;fontSize=18;strokeColor=#36393d;fillColor=#f9f7ed;fontColor=#000000;" parent="1" vertex="1">
                    <mxGeometry x="419" y="2930" width="120" height="60" as="geometry"/>
                </mxCell>
                <mxCell id="Rb2rSseCKVTXl8TNKAfo-126" value="" style="edgeStyle=none;html=1;strokeColor=#000000;" parent="1" source="Rb2rSseCKVTXl8TNKAfo-127" target="Rb2rSseCKVTXl8TNKAfo-124" edge="1">
                    <mxGeometry relative="1" as="geometry"/>
                </mxCell>
                <mxCell id="Rb2rSseCKVTXl8TNKAfo-127" value="StandLight&lt;br&gt;Service" style="whiteSpace=wrap;html=1;fontSize=18;strokeColor=#36393d;fillColor=#f9f7ed;fontColor=#000000;" parent="1" vertex="1">
                    <mxGeometry x="419" y="2700" width="120" height="60" as="geometry"/>
                </mxCell>
                <mxCell id="Rb2rSseCKVTXl8TNKAfo-128" value="" style="edgeStyle=none;html=1;strokeColor=#000000;" parent="1" source="Rb2rSseCKVTXl8TNKAfo-129" target="Rb2rSseCKVTXl8TNKAfo-131" edge="1">
                    <mxGeometry relative="1" as="geometry"/>
                </mxCell>
                <mxCell id="Rb2rSseCKVTXl8TNKAfo-129" value="Clock&lt;br&gt;Service" style="whiteSpace=wrap;html=1;fontSize=18;fillColor=#f9f7ed;strokeColor=#36393d;fontColor=#000000;" parent="1" vertex="1">
                    <mxGeometry x="556" y="2700" width="120" height="60" as="geometry"/>
                </mxCell>
                <mxCell id="Rb2rSseCKVTXl8TNKAfo-130" value="" style="edgeStyle=none;html=1;strokeColor=#000000;" parent="1" source="Rb2rSseCKVTXl8TNKAfo-131" target="Rb2rSseCKVTXl8TNKAfo-132" edge="1">
                    <mxGeometry relative="1" as="geometry"/>
                </mxCell>
                <mxCell id="Rb2rSseCKVTXl8TNKAfo-131" value="ClockView" style="whiteSpace=wrap;html=1;fontSize=18;fillColor=#f9f7ed;strokeColor=#36393d;fontColor=#000000;" parent="1" vertex="1">
                    <mxGeometry x="555" y="2800" width="120" height="60" as="geometry"/>
                </mxCell>
                <mxCell id="Rb2rSseCKVTXl8TNKAfo-132" value="LCD" style="whiteSpace=wrap;html=1;fontSize=18;fillColor=#f9f7ed;strokeColor=#36393d;fontColor=#000000;" parent="1" vertex="1">
                    <mxGeometry x="555" y="2930" width="120" height="60" as="geometry"/>
                </mxCell>
                <mxCell id="Rb2rSseCKVTXl8TNKAfo-133" value="5" style="text;html=1;resizable=0;autosize=1;align=center;verticalAlign=middle;points=[];fillColor=none;rounded=0;fontColor=#000000;" parent="1" vertex="1">
                    <mxGeometry x="485" y="2910" width="20" height="20" as="geometry"/>
                </mxCell>
                <mxCell id="Rb2rSseCKVTXl8TNKAfo-134" value="2" style="text;html=1;resizable=0;autosize=1;align=center;verticalAlign=middle;points=[];fillColor=none;rounded=0;fontColor=#000000;" parent="1" vertex="1">
                    <mxGeometry x="95" y="2810" width="20" height="20" as="geometry"/>
                </mxCell>
                <mxCell id="Rb2rSseCKVTXl8TNKAfo-135" value="ClockCheck" style="whiteSpace=wrap;html=1;fontSize=18;fillColor=#f9f7ed;strokeColor=#36393d;fontColor=#000000;" parent="1" vertex="1">
                    <mxGeometry x="155" y="2830" width="120" height="60" as="geometry"/>
                </mxCell>
                <mxCell id="Rb2rSseCKVTXl8TNKAfo-136" value="&lt;font&gt;&lt;font style=&quot;font-size: 14px&quot;&gt;&lt;font&gt;스탠드 #5&lt;br&gt;1. 버튼1 : LED 밝기 조절&lt;br&gt;2. 버튼2 : LCD(시계) back light ON/OFF&lt;br&gt;3. LCD 0 : LED 모드 상태 표시 (off,1,2,3,4,5)&lt;br&gt;&amp;nbsp; &amp;nbsp; LCD 1: 시계 (hh:mm:ss)&lt;br&gt;&lt;/font&gt;&lt;b&gt;4. 온습도 센서 (구조체 : 온도, 습도)&lt;/b&gt;&lt;/font&gt;&lt;br&gt;&lt;/font&gt;" style="text;html=1;resizable=0;autosize=1;align=left;verticalAlign=middle;points=[];fillColor=none;strokeColor=none;rounded=0;fontColor=#000000;" parent="1" vertex="1">
                    <mxGeometry x="25" y="2360" width="290" height="90" as="geometry"/>
                </mxCell>
                <mxCell id="Rb2rSseCKVTXl8TNKAfo-138" value="DHT11" style="whiteSpace=wrap;html=1;fontSize=18;fillColor=#ffff88;strokeColor=#36393d;fontColor=#000000;" parent="1" vertex="1">
                    <mxGeometry x="284" y="2830" width="120" height="60" as="geometry"/>
                </mxCell>
                <mxCell id="120" value="" style="edgeStyle=orthogonalEdgeStyle;rounded=0;html=1;fontColor=#000000;strokeColor=#000000;" parent="1" source="113" target="114" edge="1">
                    <mxGeometry relative="1" as="geometry"/>
                </mxCell>
                <mxCell id="126" style="edgeStyle=none;rounded=0;html=1;entryX=1;entryY=0.5;entryDx=0;entryDy=0;fontColor=#000000;strokeColor=#000000;exitX=0.621;exitY=0.003;exitDx=0;exitDy=0;exitPerimeter=0;" edge="1" parent="1" source="113" target="123">
                    <mxGeometry relative="1" as="geometry">
                        <mxPoint x="760" y="2690" as="sourcePoint"/>
                        <Array as="points">
                            <mxPoint x="760" y="2520"/>
                        </Array>
                    </mxGeometry>
                </mxCell>
                <mxCell id="113" value="TempHumid&lt;br&gt;Service" style="whiteSpace=wrap;html=1;fontSize=18;fillColor=#ffff88;strokeColor=#36393d;fontColor=#000000;" parent="1" vertex="1">
                    <mxGeometry x="686" y="2700" width="120" height="60" as="geometry"/>
                </mxCell>
                <mxCell id="122" style="edgeStyle=orthogonalEdgeStyle;rounded=0;html=1;entryX=0.667;entryY=0.006;entryDx=0;entryDy=0;entryPerimeter=0;fontColor=#000000;strokeColor=#000000;" parent="1" source="114" target="Rb2rSseCKVTXl8TNKAfo-132" edge="1">
                    <mxGeometry relative="1" as="geometry">
                        <Array as="points">
                            <mxPoint x="746" y="2890"/>
                            <mxPoint x="635" y="2890"/>
                        </Array>
                    </mxGeometry>
                </mxCell>
                <mxCell id="129" style="edgeStyle=none;rounded=0;html=1;entryX=0.5;entryY=0;entryDx=0;entryDy=0;fontColor=#000000;strokeColor=#000000;" edge="1" parent="1" source="114" target="128">
                    <mxGeometry relative="1" as="geometry"/>
                </mxCell>
                <mxCell id="114" value="TempHumid&lt;br&gt;View" style="whiteSpace=wrap;html=1;fontSize=18;fillColor=#ffff88;strokeColor=#36393d;fontColor=#000000;" parent="1" vertex="1">
                    <mxGeometry x="686" y="2800" width="120" height="60" as="geometry"/>
                </mxCell>
                <mxCell id="123" value="DHT_Data" style="whiteSpace=wrap;html=1;fontSize=18;strokeColor=#36393d;fillColor=#f9f7ed;fontColor=#000000;" vertex="1" parent="1">
                    <mxGeometry x="556" y="2490" width="120" height="60" as="geometry"/>
                </mxCell>
                <mxCell id="128" value="Minitor" style="whiteSpace=wrap;html=1;fontSize=18;fillColor=#f9f7ed;strokeColor=#36393d;fontColor=#000000;" vertex="1" parent="1">
                    <mxGeometry x="686" y="2930" width="120" height="60" as="geometry"/>
                </mxCell>
            </root>
        </mxGraphModel>
    </diagram>
    <diagram id="JMYObuIH1QSER_L9iBrt" name="페이지-2">
        <mxGraphModel dx="798" dy="365" grid="1" gridSize="10" guides="1" tooltips="1" connect="1" arrows="1" fold="1" page="1" pageScale="1" pageWidth="827" pageHeight="1169" math="0" shadow="0">
            <root>
                <mxCell id="Q607Y2rKxZQUFugG3BdK-0"/>
                <mxCell id="Q607Y2rKxZQUFugG3BdK-1" parent="Q607Y2rKxZQUFugG3BdK-0"/>
                <mxCell id="XUThxh31XiLSm-2z7mRA-0" value="Button" style="whiteSpace=wrap;html=1;fontSize=18;" parent="Q607Y2rKxZQUFugG3BdK-1" vertex="1">
                    <mxGeometry x="150" y="220" width="120" height="60" as="geometry"/>
                </mxCell>
                <mxCell id="XUThxh31XiLSm-2z7mRA-1" value="" style="edgeStyle=none;html=1;fontSize=18;" parent="Q607Y2rKxZQUFugG3BdK-1" source="XUThxh31XiLSm-2z7mRA-2" target="XUThxh31XiLSm-2z7mRA-0" edge="1">
                    <mxGeometry relative="1" as="geometry"/>
                </mxCell>
                <mxCell id="Xn4zP_rzqBb-KwKWEkbt-1" style="edgeStyle=orthogonalEdgeStyle;rounded=0;html=1;exitX=1;exitY=0.5;exitDx=0;exitDy=0;fontSize=18;" parent="Q607Y2rKxZQUFugG3BdK-1" source="XUThxh31XiLSm-2z7mRA-2" target="Xn4zP_rzqBb-KwKWEkbt-0" edge="1">
                    <mxGeometry relative="1" as="geometry"/>
                </mxCell>
                <mxCell id="XUThxh31XiLSm-2z7mRA-2" value="Listener" style="whiteSpace=wrap;html=1;fontSize=18;" parent="Q607Y2rKxZQUFugG3BdK-1" vertex="1">
                    <mxGeometry x="150" y="80" width="120" height="60" as="geometry"/>
                </mxCell>
                <mxCell id="XUThxh31XiLSm-2z7mRA-3" value="LED" style="whiteSpace=wrap;html=1;fontSize=18;" parent="Q607Y2rKxZQUFugG3BdK-1" vertex="1">
                    <mxGeometry x="540" y="220" width="120" height="60" as="geometry"/>
                </mxCell>
                <mxCell id="XUThxh31XiLSm-2z7mRA-6" value="이벤트 감시 기능" style="text;html=1;align=center;verticalAlign=middle;resizable=0;points=[];autosize=1;strokeColor=none;fillColor=none;fontSize=18;" parent="Q607Y2rKxZQUFugG3BdK-1" vertex="1">
                    <mxGeometry x="130" y="50" width="150" height="30" as="geometry"/>
                </mxCell>
                <mxCell id="z8fZrk0xQkMEeZACTWGU-1" style="edgeStyle=orthogonalEdgeStyle;rounded=0;html=1;exitX=1;exitY=0.5;exitDx=0;exitDy=0;entryX=0;entryY=0.5;entryDx=0;entryDy=0;fontSize=18;" parent="Q607Y2rKxZQUFugG3BdK-1" source="Xn4zP_rzqBb-KwKWEkbt-0" target="z8fZrk0xQkMEeZACTWGU-0" edge="1">
                    <mxGeometry relative="1" as="geometry"/>
                </mxCell>
                <mxCell id="Xn4zP_rzqBb-KwKWEkbt-0" value="controller" style="whiteSpace=wrap;html=1;fontSize=18;" parent="Q607Y2rKxZQUFugG3BdK-1" vertex="1">
                    <mxGeometry x="350" y="80" width="120" height="60" as="geometry"/>
                </mxCell>
                <mxCell id="z8fZrk0xQkMEeZACTWGU-2" style="edgeStyle=orthogonalEdgeStyle;rounded=0;html=1;exitX=0.5;exitY=1;exitDx=0;exitDy=0;fontSize=18;" parent="Q607Y2rKxZQUFugG3BdK-1" source="z8fZrk0xQkMEeZACTWGU-0" target="XUThxh31XiLSm-2z7mRA-3" edge="1">
                    <mxGeometry relative="1" as="geometry"/>
                </mxCell>
                <mxCell id="z8fZrk0xQkMEeZACTWGU-0" value="View" style="whiteSpace=wrap;html=1;fontSize=18;" parent="Q607Y2rKxZQUFugG3BdK-1" vertex="1">
                    <mxGeometry x="540" y="80" width="120" height="60" as="geometry"/>
                </mxCell>
            </root>
        </mxGraphModel>
    </diagram>
</mxfile>